<svg xmlns="http://www.w3.org/2000/svg" xmlns:xlink="http://www.w3.org/1999/xlink" width="500" zoomAndPan="magnify" viewBox="0 0 375 374.999991" height="500" preserveAspectRatio="xMidYMid meet" version="1.0"><defs><clipPath id="f451ce8ce4"><path d="M 68.113281 48.675781 L 306.613281 48.675781 L 306.613281 326.175781 L 68.113281 326.175781 Z M 68.113281 48.675781 " clip-rule="nonzero"/></clipPath></defs><g clip-path="url(#f451ce8ce4)"><path fill="#ffffff" d="M 285.105469 70.367188 L 240.792969 70.367188 C 237.917969 70.367188 235.160156 69.226562 233.125 67.191406 L 217.789062 51.855469 C 215.753906 49.820312 212.996094 48.675781 210.117188 48.675781 L 164.875 48.675781 C 162 48.675781 159.242188 49.820312 157.207031 51.855469 L 141.871094 67.191406 C 139.835938 69.226562 137.078125 70.367188 134.203125 70.367188 L 89.890625 70.367188 C 77.910156 70.367188 68.199219 80.078125 68.199219 92.058594 C 68.199219 104.039062 77.910156 113.75 89.890625 113.75 L 89.890625 293.78125 C 89.890625 311.75 104.457031 326.316406 122.425781 326.316406 L 252.570312 326.316406 C 270.539062 326.316406 285.105469 311.75 285.105469 293.78125 L 285.105469 113.75 C 297.085938 113.75 306.796875 104.039062 306.796875 92.058594 C 306.796875 80.078125 297.085938 70.367188 285.105469 70.367188 Z M 165.808594 266.667969 C 165.808594 275.652344 158.523438 282.9375 149.539062 282.9375 C 140.554688 282.9375 133.269531 275.652344 133.269531 266.667969 L 133.269531 151.707031 C 133.269531 142.722656 140.554688 135.441406 149.539062 135.441406 C 158.523438 135.441406 165.808594 142.722656 165.808594 151.707031 Z M 241.722656 266.667969 C 241.722656 275.652344 234.441406 282.9375 225.457031 282.9375 C 216.472656 282.9375 209.1875 275.652344 209.1875 266.667969 L 209.1875 151.707031 C 209.1875 142.722656 216.472656 135.441406 225.457031 135.441406 C 234.441406 135.441406 241.722656 142.722656 241.722656 151.707031 Z M 241.722656 266.667969 " fill-opacity="1" fill-rule="nonzero"/></g></svg>