<svg xmlns="http://www.w3.org/2000/svg" xmlns:xlink="http://www.w3.org/1999/xlink" width="500" zoomAndPan="magnify" viewBox="0 0 375 374.999991" height="500" preserveAspectRatio="xMidYMid meet" version="1.0"><defs><clipPath id="4e4b3198e0"><path d="M 68.113281 48.675781 L 306.613281 48.675781 L 306.613281 326.175781 L 68.113281 326.175781 Z M 68.113281 48.675781 " clip-rule="nonzero"/></clipPath></defs><g clip-path="url(#4e4b3198e0)"><path fill="#000000" d="M 284.859375 70.355469 L 240.597656 70.355469 C 237.726562 70.355469 234.96875 69.214844 232.9375 67.183594 L 217.617188 51.851562 C 215.585938 49.820312 212.832031 48.675781 209.957031 48.675781 L 164.765625 48.675781 C 161.894531 48.675781 159.136719 49.820312 157.105469 51.851562 L 141.785156 67.183594 C 139.753906 69.214844 137 70.355469 134.125 70.355469 L 89.863281 70.355469 C 77.898438 70.355469 68.199219 80.0625 68.199219 92.035156 C 68.199219 104.011719 77.898438 113.714844 89.863281 113.714844 L 89.863281 293.65625 C 89.863281 311.617188 104.414062 326.175781 122.363281 326.175781 L 252.359375 326.175781 C 270.308594 326.175781 284.859375 311.617188 284.859375 293.65625 L 284.859375 113.714844 C 296.828125 113.714844 306.527344 104.011719 306.527344 92.035156 C 306.527344 80.0625 296.828125 70.355469 284.859375 70.355469 Z M 165.695312 266.558594 C 165.695312 275.539062 158.421875 282.816406 149.445312 282.816406 C 140.472656 282.816406 133.195312 275.539062 133.195312 266.558594 L 133.195312 151.65625 C 133.195312 142.675781 140.472656 135.394531 149.445312 135.394531 C 158.421875 135.394531 165.695312 142.675781 165.695312 151.65625 Z M 241.527344 266.558594 C 241.527344 275.539062 234.253906 282.816406 225.277344 282.816406 C 216.304688 282.816406 209.027344 275.539062 209.027344 266.558594 L 209.027344 151.65625 C 209.027344 142.675781 216.304688 135.394531 225.277344 135.394531 C 234.253906 135.394531 241.527344 142.675781 241.527344 151.65625 Z M 241.527344 266.558594 " fill-opacity="1" fill-rule="nonzero"/></g></svg>