<svg xmlns="http://www.w3.org/2000/svg" xmlns:xlink="http://www.w3.org/1999/xlink" width="500" zoomAndPan="magnify" viewBox="0 0 375 374.999991" height="500" preserveAspectRatio="xMidYMid meet" version="1.0"><defs><clipPath id="8e71d8caca"><path d="M 43.039062 44 L 331 44 L 331 331.789062 L 43.039062 331.789062 Z M 43.039062 44 " clip-rule="nonzero"/></clipPath></defs><path fill="#000000" d="M 286.535156 48.960938 C 281.074219 43.503906 272.375 43.503906 266.914062 48.960938 L 161.5 154.375 C 159.835938 155.949219 158.726562 157.984375 157.984375 160.207031 L 140.769531 217.679688 C 139.289062 222.582031 140.679688 227.859375 144.289062 231.46875 C 146.878906 234.152344 150.488281 235.539062 154.097656 235.539062 C 155.394531 235.539062 156.78125 235.355469 158.078125 234.984375 L 215.550781 217.769531 C 217.769531 217.03125 219.804688 215.917969 221.378906 214.253906 L 326.792969 108.839844 C 329.382812 106.25 330.863281 102.734375 330.863281 99.03125 C 330.863281 95.328125 329.382812 91.8125 326.792969 89.222656 Z M 286.535156 48.960938 " fill-opacity="1" fill-rule="nonzero"/><g clip-path="url(#8e71d8caca)"><path fill="#000000" d="M 316.980469 174.457031 C 309.3125 174.457031 303.101562 180.675781 303.101562 188.339844 L 303.101562 280.886719 C 303.101562 293.648438 292.71875 304.023438 279.960938 304.023438 L 94.867188 304.023438 C 82.109375 304.023438 71.730469 293.648438 71.730469 280.886719 L 71.730469 95.792969 C 71.730469 83.03125 82.109375 72.65625 94.867188 72.65625 L 187.414062 72.65625 C 195.082031 72.65625 201.296875 66.4375 201.296875 58.773438 C 201.296875 51.109375 195.082031 44.890625 187.414062 44.890625 L 94.867188 44.890625 C 66.800781 44.890625 43.964844 67.730469 43.964844 95.792969 L 43.964844 280.886719 C 43.964844 308.949219 66.800781 331.789062 94.867188 331.789062 L 279.960938 331.789062 C 308.03125 331.789062 330.863281 308.949219 330.863281 280.886719 L 330.863281 188.339844 C 330.863281 180.675781 324.652344 174.457031 316.980469 174.457031 Z M 316.980469 174.457031 " fill-opacity="1" fill-rule="nonzero"/></g></svg>