<svg xmlns="http://www.w3.org/2000/svg" xmlns:xlink="http://www.w3.org/1999/xlink" width="500" zoomAndPan="magnify" viewBox="0 0 375 374.999991" height="500" preserveAspectRatio="xMidYMid meet" version="1.0"><defs><clipPath id="35cf94d678"><path d="M 140 44 L 331.789062 44 L 331.789062 236 L 140 236 Z M 140 44 " clip-rule="nonzero"/></clipPath><clipPath id="9d1dd9c1c1"><path d="M 43.039062 44 L 331.789062 44 L 331.789062 331.789062 L 43.039062 331.789062 Z M 43.039062 44 " clip-rule="nonzero"/></clipPath></defs><g clip-path="url(#35cf94d678)"><path fill="#ffffff" d="M 286.671875 48.964844 C 281.207031 43.503906 272.503906 43.503906 267.039062 48.964844 L 161.570312 154.4375 C 159.902344 156.011719 158.789062 158.050781 158.050781 160.273438 L 140.828125 217.777344 C 139.34375 222.683594 140.734375 227.960938 144.34375 231.574219 C 146.9375 234.261719 150.550781 235.648438 154.160156 235.648438 C 155.457031 235.648438 156.847656 235.464844 158.140625 235.09375 L 215.648438 217.871094 C 217.871094 217.128906 219.90625 216.015625 221.480469 214.351562 L 326.953125 108.878906 C 329.546875 106.285156 331.027344 102.765625 331.027344 99.0625 C 331.027344 95.359375 329.546875 91.839844 326.953125 89.246094 Z M 286.671875 48.964844 " fill-opacity="1" fill-rule="nonzero"/></g><g clip-path="url(#9d1dd9c1c1)"><path fill="#ffffff" d="M 317.136719 174.53125 C 309.464844 174.53125 303.246094 180.753906 303.246094 188.421875 L 303.246094 281.023438 C 303.246094 293.792969 292.863281 304.171875 280.097656 304.171875 L 94.894531 304.171875 C 82.132812 304.171875 71.746094 293.792969 71.746094 281.023438 L 71.746094 95.820312 C 71.746094 83.054688 82.132812 72.671875 94.894531 72.671875 L 187.496094 72.671875 C 195.167969 72.671875 201.386719 66.449219 201.386719 58.78125 C 201.386719 51.113281 195.167969 44.890625 187.496094 44.890625 L 94.894531 44.890625 C 66.8125 44.890625 43.964844 67.742188 43.964844 95.820312 L 43.964844 281.023438 C 43.964844 309.101562 66.8125 331.953125 94.894531 331.953125 L 280.097656 331.953125 C 308.179688 331.953125 331.027344 309.101562 331.027344 281.023438 L 331.027344 188.421875 C 331.027344 180.753906 324.8125 174.53125 317.136719 174.53125 Z M 317.136719 174.53125 " fill-opacity="1" fill-rule="nonzero"/></g></svg>