<svg xmlns="http://www.w3.org/2000/svg" xmlns:xlink="http://www.w3.org/1999/xlink" width="500" zoomAndPan="magnify" viewBox="0 0 375 374.999991" height="500" preserveAspectRatio="xMidYMid meet" version="1.0"><defs><clipPath id="4a141739b3"><path d="M 45 94.34375 L 330 94.34375 L 330 280.34375 L 45 280.34375 Z M 45 94.34375 " clip-rule="nonzero"/></clipPath></defs><g clip-path="url(#4a141739b3)"><path fill="#ffffff" d="M 326.261719 176.703125 C 310.929688 152.171875 266.421875 94.347656 187.503906 94.347656 C 108.585938 94.347656 64.078125 152.171875 48.746094 176.703125 C 44.625 183.296875 44.625 191.695312 48.746094 198.289062 C 64.078125 222.820312 108.585938 280.644531 187.503906 280.644531 C 266.421875 280.644531 310.929688 222.820312 326.261719 198.289062 C 330.382812 191.695312 330.382812 183.296875 326.261719 176.703125 Z M 187.503906 248.289062 C 153.929688 248.289062 126.710938 221.070312 126.710938 187.496094 C 126.710938 153.921875 153.929688 126.703125 187.503906 126.703125 C 221.078125 126.703125 248.296875 153.921875 248.296875 187.496094 C 248.296875 221.070312 221.078125 248.289062 187.503906 248.289062 Z M 207.769531 177.363281 C 202.171875 177.363281 197.636719 172.828125 197.636719 167.230469 C 197.636719 164.46875 198.757812 161.976562 200.550781 160.148438 C 196.582031 158.25 192.195312 157.101562 187.503906 157.101562 C 170.714844 157.101562 157.109375 170.707031 157.109375 187.496094 C 157.109375 204.285156 170.714844 217.894531 187.503906 217.894531 C 204.292969 217.894531 217.898438 204.285156 217.898438 187.496094 C 217.898438 182.804688 216.75 178.417969 214.851562 174.449219 C 213.023438 176.242188 210.53125 177.363281 207.769531 177.363281 Z M 207.769531 177.363281 " fill-opacity="1" fill-rule="nonzero"/></g></svg>