<svg xmlns="http://www.w3.org/2000/svg" xmlns:xlink="http://www.w3.org/1999/xlink" width="500" zoomAndPan="magnify" viewBox="0 0 375 374.999991" height="500" preserveAspectRatio="xMidYMid meet" version="1.0"><defs><clipPath id="15168aec93"><path d="M 45 94.34375 L 330 94.34375 L 330 280.34375 L 45 280.34375 Z M 45 94.34375 " clip-rule="nonzero"/></clipPath></defs><g clip-path="url(#15168aec93)"><path fill="#000000" d="M 325.9375 176.566406 C 310.625 152.078125 266.167969 94.347656 187.339844 94.347656 C 108.511719 94.347656 64.054688 152.078125 48.742188 176.566406 C 44.625 183.152344 44.625 191.539062 48.742188 198.121094 C 64.054688 222.613281 108.511719 280.339844 187.339844 280.339844 C 266.167969 280.339844 310.625 222.613281 325.9375 198.121094 C 330.054688 191.539062 330.054688 183.152344 325.9375 176.566406 Z M 187.339844 248.039062 C 153.804688 248.039062 126.617188 220.863281 126.617188 187.34375 C 126.617188 153.824219 153.804688 126.652344 187.339844 126.652344 C 220.875 126.652344 248.0625 153.824219 248.0625 187.34375 C 248.0625 220.863281 220.875 248.039062 187.339844 248.039062 Z M 207.582031 177.226562 C 201.992188 177.226562 197.460938 172.699219 197.460938 167.113281 C 197.460938 164.355469 198.578125 161.867188 200.371094 160.039062 C 196.410156 158.148438 192.023438 156.996094 187.339844 156.996094 C 170.570312 156.996094 156.976562 170.585938 156.976562 187.34375 C 156.976562 204.105469 170.570312 217.691406 187.339844 217.691406 C 204.109375 217.691406 217.703125 204.105469 217.703125 187.34375 C 217.703125 182.660156 216.550781 178.277344 214.65625 174.320312 C 212.832031 176.109375 210.339844 177.226562 207.582031 177.226562 Z M 207.582031 177.226562 " fill-opacity="1" fill-rule="nonzero"/></g></svg>